<svg xmlns="http://www.w3.org/2000/svg" xmlns:xlink="http://www.w3.org/1999/xlink" viewBox="0 0 930.41 869.01"><defs><clipPath id="clip-path"><rect id="SVGID" x="-931.9" y="994.03" width="1918.24" height="1303.97" style="fill:none"/></clipPath><clipPath id="clip-path-2"><rect x="43.42" y="250.81" width="40.58" height="49.79" transform="translate(-172.23 119.49) rotate(-43.48)" style="fill:none"/></clipPath><clipPath id="clip-path-3"><rect x="770.96" y="477.18" width="38.89" height="47.71" transform="translate(-145.37 511.37) rotate(-33)" style="fill:none"/></clipPath></defs><g style="isolation:isolate"><g id="圖層_1" data-name="圖層 1"><g style="clip-path:url(#clip-path)"><path d="M1368.57,871.93a323.76,323.76,0,0,1-33.5,36.35,115.32,115.32,0,0,1-14.48,40.58,129.59,129.59,0,0,1-33.48,37.47,101.53,101.53,0,0,1,1.94,40.75,106.22,106.22,0,0,1-17.59,43.62A210.42,210.42,0,0,1,1243,1170.93a230.5,230.5,0,0,1-40.82,51.41,136.68,136.68,0,0,1-14.55,48.91,147.24,147.24,0,0,1-20.35,29.72,338.78,338.78,0,0,1-60.33,68.49,373.51,373.51,0,0,1-79.75,52.86,167,167,0,0,1-38.67,16.4,175.65,175.65,0,0,1-40.53,6.52,141.14,141.14,0,0,1-56.7,46,159.29,159.29,0,0,1-53.15,13.51,148.65,148.65,0,0,1-49.08,10.74,150.84,150.84,0,0,1-40.8-3.66,111.47,111.47,0,0,1-51.94,28.73,122.82,122.82,0,0,1-65.09-1.94,145.11,145.11,0,0,1-48.91,20.84,154.78,154.78,0,0,1-63.15.83c-37.76,8.37-92.69,19.15-160,27.36-46.74,5.69-92.19,9.27-125.45,10.94-31.63,1.59-52.25,1.46-52.47-.18,0,0,0,0,0,0a.12.12,0,0,1,0-.05c.71-3.29,19.48-6,19.48-6,15.25-2.2,23.84-3.18,27.72-3.73,4.31-.61,7.45-1.42,9.82-2,10.35-2.32,15.06-4.15,22.89-6.32a214.33,214.33,0,0,1,21.81-4.78c13.27-2.33,16.38-1.74,30.1-3.94a179.41,179.41,0,0,0,21.77-4.41,231.46,231.46,0,0,0,37.65-14.52c13.9-6.89,18.1-10.87,30.05-16.11a141.2,141.2,0,0,1,39-10.61,93,93,0,0,1,12.32-31.21,105.16,105.16,0,0,1,28.34-29.92,273.47,273.47,0,0,1,50.74-25,288.91,288.91,0,0,1,49-13.37,145.28,145.28,0,0,1,46.69-28.29,159.54,159.54,0,0,1,55-10.08,68.14,68.14,0,0,1,11.61-35.68,79.28,79.28,0,0,1,25.29-23.71,86.23,86.23,0,0,1,36.64-25,96.33,96.33,0,0,1,36.75-5.44,179.51,179.51,0,0,1,47.5-42.43,199.73,199.73,0,0,1,50-22,98.78,98.78,0,0,1,2-46.4,106.86,106.86,0,0,1,23.1-41.44A43.16,43.16,0,0,1,928,1114.5a52.43,52.43,0,0,1,23.76-14.34,52.53,52.53,0,0,1,8.48-22c10.41-15.47,26.3-21.9,32.2-24a159.63,159.63,0,0,1,40.73-46.54c28.33-22,57.88-30.58,73.74-34.08,41.26-.13,105.81-6.46,167.24-41.16l2.58-1.47c32.89-19,55.07-40.71,68-53.45C1399.38,823.35,1417,773,1420,774.19S1406.89,823.24,1368.57,871.93Z" style="fill:#fff"/></g></g><g id="圖層_2" data-name="圖層 2"><polygon points="692.77 217.5 868.35 501.12 835.8 526.58 696.13 414.29 564.2 354.56 692.77 217.5" style="fill:#b3b3b3"/><polygon points="658.21 335.25 710.41 254.36 664.04 193.88 567.47 354.56 699.39 414.29 833.55 522.14 658.21 335.25" style="fill:#e0e0e0;mix-blend-mode:multiply"/><polygon points="609.24 159.91 2.18 237.91 9.01 278.58 344.05 290.86 555.11 332.97 609.24 159.91" style="fill:#b3b3b3"/><polygon points="576.85 165.16 450.64 249.9 9.01 279.68 344.05 291.94 555.11 334.06 609.24 161 576.85 165.16" style="fill:#e0e0e0;mix-blend-mode:multiply"/><polygon points="698.65 214.89 689.92 221.7 864.84 500.46 835.8 526.58 869.44 501.12 698.65 214.89" style="fill:#f9f9f9"/><polygon points="3.67 240.63 604.96 165.42 607.05 154.52 0 236.62 7.49 278.25 9.84 278.25 3.67 240.63" style="fill:#f9f9f9"/><path d="M183.73,811.85C382.25,428.7,402.6,371,421.28,322.78Z" style="fill:#fffbd7;opacity:0.48;mix-blend-mode:overlay"/><path d="M332.58,869c234.1-362.52,259.85-418,283-464.24Z" style="fill:#fffbd7;opacity:0.48;mix-blend-mode:overlay"/><path d="M521.48,172.41s-55,104.28-53.25,123.35l98.15,70.82L668.52,254.13S547.32,171.51,521.48,172.41Z" style="fill:#333"/><path d="M902.05,216.52c1.66-5.44,6.56-9.25,6.56-9.25a40.83,40.83,0,0,0,9.46-16.2,28.52,28.52,0,0,1,6.79-8.31c9.8-11.64,3.65-22.42,3.65-22.42l-22-28.24c-10.47-13.55-29.12-6.59-29.12-6.59l-22.69,7s.86-5.5-7.38-9.27c-18.37-8.4-22.45,7.89-22.45,7.89a71.23,71.23,0,0,1-7.69,18.39c-1.89,3-17.78,15.21-12.31,41.79l.73,2.1c-36.09,32-83,53.51-116.87,68.17-42.72,18.48-66,5.79-66,5.79l-87.53-58.24-1.42,1.73S515.87,235,512.25,244.64c-21.22,36.66-47.14,92.88-22,114.89l16.29,4.63s13.32-24.94,20.34-21.27,7.34,17.65-.58,32.75L538.25,387s36.58-16.76,73.31-69.84c-.09.73,1.65-1.95,1.56-1.29,100.21-8.79,267.53-76,267.53-76A42.25,42.25,0,0,0,902.05,216.52Z" style="fill:#92531c"/><path d="M693.23,225.07s-2.44,34.72-26.88,40.24-75,7.94-126.51-36.07c-16.36-14-19.28-39.06-7.62-60.94l92-17Z" style="fill:#f8c058"/><path d="M583.63,18.6c10.67-18.33,31.44-24,49.81-13,20.68,12.31,11.39,42.47,6.19,45.58,21.19,3,39.64,10.17,49.71,16.44,1.73-22.27,24.74-31.28,44-21.43,20.74,10.6,29.23,33.93,17.38,47.16-10.14,11.31-19.88,13.12-31.91,10.76,3.07,6.87,6.06,19,4.58,28.47C719,160.9,710,189.8,696,231.67c0,0-33.1-35.76-67.32-66.91a833.31,833.31,0,0,0-103,13.85S543.4,133.42,581.23,80c0,0,7.8-12.4,25.43-19.35a61.43,61.43,0,0,1-7.28-3.43C583.17,49,574.59,34.14,583.63,18.6Z" style="fill:#92531c"/><path d="M657,136.68l50,.95s-11.84,20.72-29.29,21.48C659.55,159.91,657,136.68,657,136.68Z" style="fill:#fff"/><path d="M628.31,124.13,586,98.85s-4.67,19.21,8.4,29.83C608,139.72,628.31,124.13,628.31,124.13Z" style="fill:#fff"/><path d="M712.28,67.8a13.14,13.14,0,1,0,18-4.38A13.1,13.1,0,0,0,712.28,67.8Z" style="fill:#fff"/><path d="M602.18,26.37a13.14,13.14,0,1,0,18-4.37A13.09,13.09,0,0,0,602.18,26.37Z" style="fill:#fff"/><path d="M579.38,189.18S611.48,217.8,650,215.4c0,0-39,5.53-60.2-6.44-7.5-4.24-9.32-8.43-11.14-19Z" style="fill:#ed1c24"/><path d="M820.93,142.37a23.26,23.26,0,0,0-6.74,12.78c-1.22,7.38,2.09,15.55,8.5,19.56a17.26,17.26,0,0,0,17.62.26c5.45-3.13,8.41-9,9.23-15.08a87.24,87.24,0,0,1,8-26.72c.92-1.86-3-1.7-3.66-.31a91.11,91.11,0,0,0-7.83,24.74c-.31,1.77-.48,3.55-.9,5.3a17.62,17.62,0,0,1-4.5,8.41,11.51,11.51,0,0,1-13.18,2.26c-6.17-2.73-9.86-9.83-9.63-16.42a20.5,20.5,0,0,1,6.26-13.82,1,1,0,0,0-.45-1.69,2.89,2.89,0,0,0-2.73.73Z" style="fill:#603813"/><path d="M830.79,212.05c-6.07-5.33-10.58-12.42-10.26-20.74a28,28,0,0,1,4.94-14.21,20.15,20.15,0,0,1,1.91-2.5c.59-.66-.52-.79-1-.78a3.92,3.92,0,0,0-2.57,1c-6.28,6.92-9.1,17.61-5.72,26.44a31.75,31.75,0,0,0,9,12.2c.84.73,4.35-.73,3.62-1.37Z" style="fill:#603813"/><path d="M570.46,317.33s5.15-13.56-14.6-23.47c0,0,17.55,7.17,22.35-5.58,6.4-17-28.4-25.22-28.4-25.22s-9.91,22-15.13,38.51l-2.62,10.65S565.8,332,570.46,317.33Z" style="fill:#fff000"/><path d="M555.87,274.58s-2.46,5.58-3.81,9.35c0,0,13,6.25,15.23.45C569.75,278,555.87,274.58,555.87,274.58Z" style="fill:#92531c"/><path d="M559.72,312.44a3.54,3.54,0,0,0,.34-2c-.39-3.75-3.89-7.16-6.87-9.15-.43-.28-5.69-3-5.73-2.87l-3.59,11.19c-.06.21,4.93,2.26,5.25,2.39,1.39.56,2.84,1,4.27,1.48a8.56,8.56,0,0,0,4.22.48A2.92,2.92,0,0,0,559.72,312.44Z" style="fill:#92531c"/><path d="M526.92,213.8s-36.39,56.41-34.07,65.62,18.94-14,18.94-14S542.62,224.07,526.92,213.8Z" style="fill:#4d4d4d"/><path d="M631.37,268.27s1.56.49,1.44,3.32c-.2,4.8.05,14.45-8.22,31.44C612.22,328.45,610.27,322,608,322.22,608,322.22,624.32,266.38,631.37,268.27Z" style="fill:#4d4d4d"/><path d="M573,73.26s35-46.72,94.63-23.9c55.77,21.33,63.73,60.93,64.85,86.84C732.46,136.2,669.36,92.64,573,73.26Z" style="fill:#c1272d"/><path d="M725,187.07s-40.33-4.76-94-26.46-84.71-42.91-84.71-42.91l16.94-43.64S614,78.72,656.72,97.27,742,143.43,742,143.43Z" style="fill:#fff;stroke:#fff;stroke-miterlimit:10;stroke-width:1.2925px;opacity:0.15"/><path d="M667,100.58S657.9,97,652.49,94.32s-16.62-6.18-16.62-6.18L659,46.82s7.58,2.06,11.19,3.56,10.35,5.39,10.35,5.39Z" style="fill:#fff"/><path d="M724.83,185.7s-40.33-4.76-94-26.45-84.71-42.92-84.71-42.92L563.08,72.7s50.73,4.65,93.46,23.2,85.23,46.16,85.23,46.16Z" style="fill:none"/><path d="M725.61,186.35s-40.33-4.77-94-26.46S546.92,117,546.92,117l16.94-43.64s50.73,4.66,93.46,23.2,85.23,46.17,85.23,46.17Z" style="fill:none;stroke:#fff9d9;stroke-miterlimit:10;stroke-width:2.58501px"/><polygon points="615.84 84.15 568.03 130.73 592.41 143.42 642.77 92.54 615.84 84.15" style="fill:#fff;opacity:0.25"/><polygon points="596.93 79.29 553.55 122.21 558.68 124.86 604.52 80.9 596.93 79.29" style="fill:#fff;opacity:0.25"/><path d="M93.67,296.6l-62-28.36,43-93.84s12.39-17.59,42.43-6.94c27.06,9.58,19.54,35.31,19.54,35.31Z" style="fill:#ccc"/><path d="M40.16,266.8l43-93.84s3.72-5.26,12-8.29c-15.08,1-21.62,10.27-21.62,10.27L30.55,268.78l62,28.36,2.42-5.27Z" style="fill:#f9f9f9"/><path d="M123,170.24c4.54,9.95,1.57,20.14,1.57,20.14L81.65,284.22,33.94,262.38l-2.64,5.77,62,28.36,42.95-93.83S142.46,181.28,123,170.24Z" style="opacity:0.1"/><path d="M36.31,286.52c-11-11.66-7.35-24.14,8.27-27.88S81.81,261.31,92.87,273s7.34,24.12-8.27,27.87-37.24-2.67-48.29-14.32" style="fill:#375a64"/><g style="opacity:0.5"><g style="clip-path:url(#clip-path-2)"><path d="M65.45,278.92l.33,17.82.53-20.09Zm2.25.13,4.94,17.12L68,276.63Zm2.22-.47L79.07,294l-9.54-17.79Zm2-1,12.79,12.52L70.94,275.35ZM59,295.51l5.71-19.26-1.42,2Zm.24-28.85-17.51-4.43,19.47,5.85Zm-6.46,25.92,10.5-17.13L61.41,277Zm5.75-23.77-17.95.29,20.22.57Zm15.08,7.25,15.54,8.8L72.09,274.17Zm-13.72-.77L47.53,288.13,62.12,274.3Zm-1.48-4.23L41.29,276l19.54-4.68Zm.46,2.21-15.26,9.2,17.66-9.58Zm11.58-9.49-.2-1.14-1,3.39Zm-5.95-1.28-1.85-1.79,2.75,5.58Zm4.09.68L68.11,262,68,265.1Zm-1.92-.35-1-1.41,1,4.08Zm-6.2,1.94-9.27-4.87L62,266.65Zm2-1.44-4.21-3.27,6.14,6.62Zm13.23,6.43,6.58-2.11-9,1.86Zm-3.29-6.37-2.32,3.38,2-1.83Zm2.78,11.11,17.29,4.29-19.57-6.05Zm.39-2.49L88,271.8l-14.67-.65Zm-1.28-3.93.75-.18,2.91-2.4-5.12,2.43Zm-1.83-1.24.86-.46,1.56-2.17L72,266.52Z" style="fill:#fff"/></g></g><path d="M61,269.64l-27.64-.73a1.1,1.1,0,0,0-1,.59c-.08.21-.16.41-.22.63a.29.29,0,0,0,0,.09s.3.11.7.11l28.12.75c.4,0,.41.1,0,.19l-27.52,6.59a.59.59,0,0,0-.42.84v0a.91.91,0,0,0,1,.48l27.27-6.54c.39-.09.42,0,.07.18L38.57,285.22a.48.48,0,0,0-.11.83l.07.06a1.13,1.13,0,0,0,1.17.14L62.09,274.1c.34-.18.39-.12.1.16L45.13,290.44a.55.55,0,0,0,.07.89l0,0a.93.93,0,0,0,1.13-.1L63.18,275.3c.29-.28.36-.22.15.12L51.85,294.14a.65.65,0,0,0,.27.94h0a.8.8,0,0,0,1-.3l11.41-18.61c.21-.33.29-.3.17.08l-6.08,20.5c-.11.38,0,.75.2.84l.41.14.28.07c.16,0,.37-.25.49-.63l6.08-20.51c.12-.38.2-.37.19,0l-.58,21.85a.8.8,0,0,0,.69.81h0a.64.64,0,0,0,.73-.63l.59-22c0-.4.09-.41.18,0l5.43,22.63a.93.93,0,0,0,.88.7h0a.56.56,0,0,0,.55-.71l-5.5-22.95c-.09-.39,0-.42.17-.07l12.21,22.49a1.11,1.11,0,0,0,1,.53h.09a.48.48,0,0,0,.37-.75L70.75,275.62c-.19-.35-.12-.4.15-.11L90.35,296a.91.91,0,0,0,1.1.14h0a.61.61,0,0,0,.09-.94l-19.63-20.7c-.27-.28-.22-.35.12-.14L96.3,289.23c.34.21.63.32.66.25a.5.5,0,0,0,.05-.13,5.82,5.82,0,0,0,.14-.6,1.06,1.06,0,0,0-.5-1L72.82,273.15c-.34-.21-.31-.29.08-.17l22,6.52c.39.12.55-.07.34-.42l-.34-.59a2.12,2.12,0,0,0-1.08-.8L73.31,271.6c-.39-.12-.38-.2,0-.19l14.86.39c.4,0,.48-.19.19-.46l-.58-.54a2.3,2.3,0,0,0-1.27-.48L73.37,270c-.4,0-.41-.09,0-.19l8.91-2.13c.38-.1.42-.34.08-.53l-.57-.33a2.12,2.12,0,0,0-1.33-.18L73,268.39c-.38.09-.41,0-.07-.18l5-2.71c.34-.18.33-.48,0-.66l-.28-.15a1.55,1.55,0,0,0-1.28,0L72.26,267c-.35.19-.4.12-.11-.15l2.72-2.59a.41.41,0,0,0-.15-.74l-.16-.06a1.31,1.31,0,0,0-1.2.26l-2.2,2.08c-.29.28-.35.23-.15-.11l1.38-2.25a.58.58,0,0,0-.3-.87h0a.93.93,0,0,0-1,.38l-1.22,2c-.21.34-.29.3-.17-.08l.64-2.16c.11-.38.08-.73-.06-.79s-.18-.07-.27-.09a3.89,3.89,0,0,0-.43-.11c-.23,0-.51.22-.62.6l-.64,2.14c-.11.38-.2.37-.19,0l.06-2.31a.91.91,0,0,0-.68-.89h0a.56.56,0,0,0-.72.56l-.07,2.62c0,.4-.09.41-.18,0l-.71-2.93a1.29,1.29,0,0,0-.86-.87l-.17,0c-.38-.1-.62.15-.53.54l.88,3.64c.08.38,0,.41-.18.06l-2.2-4a1.56,1.56,0,0,0-1-.73l-.33,0c-.39,0-.56.2-.37.55l2.68,4.93c.19.36.12.4-.15.11l-5.2-5.48A2.06,2.06,0,0,0,57,259.5l-.64,0c-.39,0-.49.22-.22.51l6.23,6.56c.27.29.22.35-.12.14L51.21,259.9a2.29,2.29,0,0,0-1.33-.29l-.77.13c-.39.08-.43.29-.09.5l12.5,7.66c.34.21.31.29-.07.18l-20.25-6a2.31,2.31,0,0,0-1.35.09l-.61.3c-.35.19-.32.44.06.55L61,269.46c.38.11.37.19,0,.18" style="fill:#2b454e"/><path d="M51.29,268.9c-9.23,2.88-17.84,6.34-23.28,12.87-4.18,5.08-3.67,9.72-4.39,15.28-.62,4.83-.91,8.28-4.62,12.57-4,4.61-11.22,6.7-15.76,10.5,1.93.58,8.42-3.12,11-3.8,1-.28,1.91.07,3-.26,2.49-.72,4.46-2.51,7.13-2.84-6.46,8.72-10.53,19-8.72,28.6,1.24,6.79,3.61,12,1,19.08a47.6,47.6,0,0,1-6.56,11.7c3.58-.88,6.18-5.77,8.55-8.21,1.87-1.91,3.91-3.57,5.59-5.62-.11,9-7.74,20.75-3.43,29.58,1.26,2.62,3.58,4,5.33,6,2.88-3.79,3.63-9.66,5.87-13.92a90.25,90.25,0,0,1,6.72-10.59c2.18-3,4.55-6.37,7.58-8.79,4.33-3.44,9.87-5.75,14.45-9.07,4-2.85,10.52-7.77,12.68-11.79,3-5.48-.38-10.83,3.28-16.57a55,55,0,0,1,6-7c2.25-2.38,4.91-3.31,7.37-5.42,3.5-3,6.24-6.18,5.26-9.74-.93-3.34-2.41-6.41-3.19-9.83-.84-3.69-2.39-8.26-2.56-12.05" style="fill:#ec341a"/><path d="M57,270.84c-6.27,2-12.14,4.31-15.9,8.74-2.89,3.44-2.59,6.59-3.14,10.36-.47,3.28-.7,5.62-3.3,8.52-2.77,3.13-7.79,4.55-11,7.12,1.32.39,5.85-2.11,7.66-2.57.73-.19,1.32.05,2.1-.17,1.72-.49,3.1-1.7,4.94-1.93-4.53,5.92-7.44,12.9-6.28,19.4.81,4.61,2.43,8.17.55,12.95a32.28,32.28,0,0,1-4.7,7.92c2.53-.59,4.39-3.9,6.08-5.55,1.33-1.29,2.76-2.42,4-3.8-.11,6.11-5.56,14.07-2.54,20.07.88,1.79,2.53,2.7,3.77,4.12,2-2.57,2.59-6.55,4.18-9.44a61,61,0,0,1,4.75-7.18,30.47,30.47,0,0,1,5.32-5.95c3-2.33,6.91-3.89,10.1-6.14,2.76-1.93,7.3-5.26,8.78-8,2-3.73-.34-7.37,2.16-11.26a38.56,38.56,0,0,1,4.13-4.72c1.54-1.62,3.36-2.25,5-3.68,2.38-2,4.23-4.2,3.52-6.62s-1.71-4.36-2.26-6.69c-.6-2.51-1.69-5.62-1.82-8.19" style="fill:#fed116"/><path d="M60.4,272.83c-4.2,1.3-8.14,2.88-10.68,5.84-2,2.31-1.79,4.41-2.18,6.94-.34,2.19-.5,3.76-2.27,5.7-1.9,2.1-3.5,3.35-2.27,3,.49-.12.89,0,1.42-.11,1.17-.33,2.1-1.14,3.35-1.29-3.1,4-5.12,8.63-4.37,13,.53,3.08,1.62,5.47.32,8.66a21.56,21.56,0,0,1-3.27,5.3c1.74-.39,3-2.61,4.2-3.71.91-.86,1.9-1.61,2.72-2.54-.1,4.1-3.86,9.41-1.8,13.44.61,1.2,1.74,1.81,2.6,2.77,1.42-1.72,1.79-4.39,2.89-6.32a41.46,41.46,0,0,1,3.26-4.8,20.4,20.4,0,0,1,3.64-4c2.07-1.56,4.72-2.6,6.89-4.1,1.88-1.3,5-3.52,6-5.35,1.36-2.5-.26-4.94,1.41-7.55A25.47,25.47,0,0,1,75,294.6c1-1.08,2.26-1.5,3.38-2.46,1.59-1.36,2.83-2.81,2.34-4.44s-1.18-2.92-1.56-4.48a33.25,33.25,0,0,1-1.26-5.49" style="fill:#fef3c4"/><path d="M815,526l-53.46-37.53,56.83-80.94s14.74-14.41,41.2.86C883.37,422.08,871.81,445,871.81,445Z" style="fill:#ccc"/><path d="M769.75,488.54l56.83-80.94s4.42-4.31,12.76-5.72c-14.38-1.68-22.16,5.91-22.16,5.91l-56.83,80.94,53.46,37.53,3.2-4.55Z" style="fill:#f9f9f9"/><path d="M864.67,412c2.55,10.16-2,19.25-2,19.25l-56.82,80.94L764.66,483.3l-3.49,5,53.46,37.52,56.83-80.93S881.06,425.78,864.67,412Z" style="opacity:0.1"/><path d="M762.7,506.45c-8.39-12.9-2.73-24,12.64-24.82s34.63,9,43,21.91,2.72,24-12.65,24.82-34.62-9-43-21.91" style="fill:#375a64"/><g style="opacity:0.5"><g style="clip-path:url(#clip-path-3)"><path d="M791.47,504.37l-2.79,16.85,4-18.83Zm2.11.51,1.66,17-1-19.23Zm2.16-.05,6,16.1L795.8,502.5Zm2.08-.61,9.87,14L797.28,502Zm-15.31,14.66,8.75-17.15-1.69,1.6Zm5.26-27.15L772,484.51l17.33,8.91ZM777.17,515l12.88-14.31-2,1.12Zm9.56-21.39-17-2.85,19,4.06Zm12.94,9.46,13.12,11-14.23-13.05ZM786.88,500,773,509.92l16.15-10.48Zm-.66-4.24-17,1.66,19.23-1Zm0,2.17-16,6L788.59,498ZM798.84,491v-1.11l-1.53,3Zm-5.39-2.25-1.43-2,1.62,5.74Zm3.73,1.36-.24-1.23-.62,2.94Zm-1.75-.67-.64-1.49.22,4Zm-6.17.75L781.38,484l9,8.25Zm2.11-1-3.4-3.82,4.63,7.31Zm11.35,8.36,6.56-.84-8.79.18Zm-2-6.58L798,493.73l2.16-1.39Zm.67,11L817,509l-17.38-9.1Zm.81-2.28,11.73,2-13.72-3.16Zm-.52-3.92.73,0,3.16-1.76-5.24,1.4Zm-1.51-1.49.89-.29,1.85-1.77-3.12,1.68Z" style="fill:#fff"/></g></g><path d="M788.91,494.85,763,489.34a1.07,1.07,0,0,0-1,.4,4.37,4.37,0,0,0-.32.55.2.2,0,0,0,0,.08c0,.05.27.15.64.23l26.37,5.6c.38.08.37.17,0,.18l-27.08,1.42a.58.58,0,0,0-.55.72h0a.87.87,0,0,0,.86.63l26.84-1.4c.38,0,.39.05,0,.18l-23.67,7.69a.45.45,0,0,0-.25.76l.06.06a1.08,1.08,0,0,0,1.08.34l23.21-7.54c.35-.12.39-.05.07.16l-18.9,12.27a.53.53,0,0,0-.09.86s0,0,0,0a.92.92,0,0,0,1.08.09L790,500.56c.32-.21.37-.14.12.14L776,516.34a.62.62,0,0,0,.09.93h0a.77.77,0,0,0,1-.1l14-15.55c.26-.28.32-.23.14.11L782,520c-.16.35-.15.71,0,.83l.36.21.25.11c.14.06.39-.17.56-.51l9.31-18.27c.18-.34.26-.31.17.06L788.3,522.9a.78.78,0,0,0,.51.89h0a.62.62,0,0,0,.8-.46L794,502.69c.07-.37.15-.36.17,0L795.36,525a.88.88,0,0,0,.7.81h0a.53.53,0,0,0,.64-.58l-1.18-22.58c0-.38.06-.4.17,0l7.58,23.33a1.1,1.1,0,0,0,.91.68h.08a.46.46,0,0,0,.48-.64l-7.73-23.79c-.12-.36,0-.39.16-.07L812,524.82a.86.86,0,0,0,1,.33h0a.58.58,0,0,0,.26-.86l-14.9-22.93c-.2-.32-.15-.37.14-.12l20.24,18.23c.29.26.55.41.59.35l.07-.11c.09-.18.16-.36.24-.54a1,1,0,0,0-.31-1l-19.9-17.93c-.29-.25-.24-.32.1-.14l19.61,10c.34.17.53,0,.39-.34s-.14-.42-.22-.62a2.16,2.16,0,0,0-.87-1l-18.28-9.31c-.35-.18-.32-.25.05-.18l13.94,3c.37.08.48-.1.25-.41s-.29-.4-.45-.6a2.13,2.13,0,0,0-1.11-.68l-12.34-2.62c-.38-.08-.37-.16,0-.18l8.77-.46c.38,0,.46-.24.17-.49l-.48-.41a2,2,0,0,0-1.22-.4l-7.31.38c-.38,0-.4-.05,0-.18l5.17-1.68c.36-.11.4-.39.11-.62l-.25-.19a1.52,1.52,0,0,0-1.21-.2L800,494.28c-.36.11-.4,0-.08-.16l3-2a.4.4,0,0,0,0-.73l-.14-.07a1.22,1.22,0,0,0-1.17,0L799.15,493c-.32.21-.37.15-.12-.14l1.7-1.88a.54.54,0,0,0-.14-.86l0,0a.88.88,0,0,0-1.06.18L798,491.9c-.25.28-.32.23-.15-.11l1-1.92c.17-.34.2-.68.08-.75a1.49,1.49,0,0,0-.24-.14,3.29,3.29,0,0,0-.39-.17c-.21-.09-.52.11-.69.44l-1,1.92c-.18.34-.25.31-.17-.06l.46-2.17a.89.89,0,0,0-.49-1h0a.54.54,0,0,0-.77.4l-.52,2.46c-.08.37-.16.37-.18,0l-.15-2.88a1.24,1.24,0,0,0-.67-1l-.15-.07c-.34-.16-.62,0-.6.42l.2,3.58c0,.37-.06.39-.18,0l-1.37-4.2a1.48,1.48,0,0,0-.87-.86l-.3-.1c-.36-.1-.56.1-.44.46l1.67,5.12c.11.36,0,.4-.17.08L788,485.34a2,2,0,0,0-1-.74l-.6-.13c-.37-.08-.5.11-.29.43l4.72,7.27c.21.32.14.37-.14.11L781.38,484a2.25,2.25,0,0,0-1.2-.5h-.76c-.38,0-.45.2-.17.45l10.44,9.41c.29.25.25.32-.09.15l-18-9.19a2.09,2.09,0,0,0-1.28-.15l-.63.18c-.37.11-.38.35,0,.52L789,494.68c.34.18.31.25-.06.17" style="fill:#2b454e"/><path d="M789.55,493.31c-2.33-1.42-4.76-.23-7.27,0-4.23.41-9.32-.9-13.42.09-3.56.86-5.47,3.46-8.17,5.55-7.84,6.11-18.56,1.34-27.72,1.18,3.56,4.86,12.22,7.4,17.52,10.25-2.86,1.29-4.94,3.94-7.41,5.8s-5.18,2.71-7.42,4.51c-5.24,4.23-4.72,9.89-4.78,16.14-.07,6.91-6.27,11.49-9.66,17.37-5.28,9.16,11.3.24,13.59-3.49-6.31,8.78-10,18.79-15.94,27.58a189.06,189.06,0,0,1-11.9,15c12.26-.81,23.46-13.29,34-18.58,7-3.5,16.24-3.89,23.36-6-4,5.75-9.83,13-15.24,17.26,12-4.79,25.36-12,34.2-21.58a36.38,36.38,0,0,0,7-9.84c1.48-3.25,3.93-9.72,7.52-11.49s7.12,2.5,9.85-.34-.15-9.32-.68-12.65c-1.22-7.65,0-18.92,6.37-24.3" style="fill:#ec341a"/><path d="M792.4,498.18c-1.44-.87-2.93-.14-4.47,0-2.6.25-5.73-.55-8.25.05-2.19.53-3.36,2.13-5,3.42-4.82,3.75-11.41.82-17,.72,2.19,3,7.51,4.54,10.76,6.3-1.76.79-3,2.42-4.56,3.56s-3.17,1.67-4.55,2.78c-3.23,2.59-2.9,6.07-2.94,9.91,0,4.25-3.85,7.06-5.93,10.67-3.25,5.63,6.94.15,8.34-2.14-3.87,5.4-6.13,11.54-9.79,16.94a113.27,113.27,0,0,1-7.31,9.22c7.53-.49,14.41-8.16,20.9-11.41,4.3-2.15,10-2.39,14.36-3.66-2.47,3.53-6,8-9.37,10.61,7.39-2.95,15.59-7.4,21-13.26a22.85,22.85,0,0,0,4.3-6c.9-2,2.41-6,4.62-7.06s4.37,1.53,6-.21-.09-5.73-.42-7.77c-.75-4.7,0-11.63,3.91-14.94" style="fill:#fed116"/><path d="M792.92,499.27c-1-.63-2.11-.11-3.21,0-1.88.18-4.13-.4-5.94,0-1.57.37-2.42,1.52-3.61,2.45-3.47,2.7-6.86,3.79-4.51,5.06-1.27.57-2.19,1.74-3.29,2.56s-2.28,1.2-3.28,2c-2.32,1.87-2.08,4.37-2.11,7.13,0,3.06-2.77,5.09-4.27,7.69-2.34,4,5,.1,6-1.54-2.79,3.88-4.42,8.31-7.05,12.19a81.62,81.62,0,0,1-5.27,6.64c5.43-.36,10.38-5.88,15.05-8.22,3.09-1.55,7.19-1.72,10.33-2.63a38.83,38.83,0,0,1-6.74,7.64c5.32-2.12,11.22-5.33,15.13-9.55a16,16,0,0,0,3.09-4.36c.66-1.43,1.74-4.29,3.33-5.08s4.29-4.27,4.06-5.74c-.54-3.39,0-8.37,2.81-10.75" style="fill:#fef3c4"/><path d="M458.58,238s7.18,22.47,21.52,21.57A81.22,81.22,0,0,0,504,252.23l23.08-32.94-61,5.53Z" style="fill:#92531c"/><path d="M456.65,214.4s-12.54,4.27-8,18.94c2,6.56.89,9.68.89,9.68s-2,28.1,23,28.45c18.39.25,26.64-28.08,21-35.25-5.16-6.61.13-9.19-1.64-17C491.26,216.36,485.65,204.45,456.65,214.4Z" style="fill:#92531c"/><path d="M496.47,239.16a10,10,0,0,0-1.91-3.85c-1.85-2.49-1.93-5.11-1.34-8,1.2-5.92.68-11-4.56-14.42-7-4.57-16.76-3.17-24.53-1.3,1.1.11,2.19.24,3.28.4,7-1.59,14.63-1.93,20.07,2.44a9.67,9.67,0,0,1,3.09,4.36c1.51,4.63-1.33,9-.33,13.57.46,2.08,2.05,3.52,2.92,5.39a12.7,12.7,0,0,1,.89,5.14,32.09,32.09,0,0,1-2.86,12.86,29.42,29.42,0,0,1-8.43,11.52,15.84,15.84,0,0,1-4.19,2.44c-.32.58-.66,1.16-1,1.73a20.82,20.82,0,0,0,2.22-.62c8.53-3,13.71-12,16-20.2A24.16,24.16,0,0,0,496.47,239.16Z" style="fill:#603813"/></g></g></svg>