<svg id="圖層_1" data-name="圖層 1" xmlns="http://www.w3.org/2000/svg" viewBox="0 0 1006 116"><path d="M686.19,49.51c-6.2-7.75-16.33-12-28.51-12-14.37,0-26.82,6.36-34.46,16.63a21,21,0,0,0-4.49-10c-2.57-3-7.45-6.61-16-6.61a23.89,23.89,0,0,0-18.2,7.61c-3.31-4.87-8.79-7.61-15.71-7.61A25.09,25.09,0,0,0,556.21,41c-.09-.14-.18-.27-.28-.4a4.72,4.72,0,0,0-3.7-1.79H526.3a4.7,4.7,0,0,0-4.64,4L519.8,54.45a25.63,25.63,0,0,0-3.73-5.84C510,41.44,500,37.49,487.91,37.49c-15.68,0-28.85,6.45-36.63,17.08a20.59,20.59,0,0,0-4.45-10.69c-3.62-4.24-8.93-6.39-15.79-6.39a24.51,24.51,0,0,0-12.62,3.6l.6-2.48c0-.12.05-.24.07-.36l3.78-23.82A4.69,4.69,0,0,0,418.22,9H390.8a4.7,4.7,0,0,0-3.68,1.78l-.09-.13A4.72,4.72,0,0,0,383.46,9H322.22a4.72,4.72,0,0,0-3.39,1.47A4.66,4.66,0,0,0,315.41,9H288a4.71,4.71,0,0,0-4.63,3.87l-4.29,23.85a4.66,4.66,0,0,0,.65,3.3,4.64,4.64,0,0,0-1.5,2.74l-8.94,56.46a4.7,4.7,0,0,0,4.64,5.43h27.42a4.7,4.7,0,0,0,4.64-4l8.94-56.45a4.51,4.51,0,0,0,.05-1,4.74,4.74,0,0,0,3.34,1.22L328.72,44,320,98.77a4.68,4.68,0,0,0,4.64,5.43h29.13a4.7,4.7,0,0,0,4.64-4l9-56.34,11.73.54a4.66,4.66,0,0,0,2.13-.44L372.5,99.18a4.7,4.7,0,0,0,4.64,5.43h27.42a4.71,4.71,0,0,0,4.65-4l4.62-29.14c.07-.47.15-.85.23-1.17l-4.57,28.83a4.71,4.71,0,0,0,4.64,5.44h26.79a4.71,4.71,0,0,0,4.65-4l1.63-10.33a25.84,25.84,0,0,0,2.88,4.17c6.19,7.25,16.57,11.41,28.48,11.41,13,0,26.94-5.28,35.55-15.49l-1.39,8.78a4.69,4.69,0,0,0,4.64,5.43h26.57a4.71,4.71,0,0,0,4-2.2,5.34,5.34,0,0,0,.41.56,4.71,4.71,0,0,0,3.57,1.64h26.58a4.7,4.7,0,0,0,4-2.21,4.57,4.57,0,0,0,.41.57,4.73,4.73,0,0,0,3.58,1.64H613a4.7,4.7,0,0,0,4.64-4l1.43-9a24.87,24.87,0,0,0,2.29,3.23c6.08,7.12,16.21,11,28.53,11,14.74,0,32.59-7,39.26-22.74a4.7,4.7,0,0,0,.25-2.93,4.73,4.73,0,0,0,2-2.88C693.85,66.44,692.05,56.81,686.19,49.51ZM651.43,81.26c0-.06,0-.15,0-.25h1.39A2,2,0,0,1,651.43,81.26ZM482,75a1.93,1.93,0,0,1-1.46-.53,2.2,2.2,0,0,1-.31-1.8c.39-2.47,2.24-4.33,4.32-4.33a1.55,1.55,0,0,1,1.32.45,3.11,3.11,0,0,1,.38,2.4A4.55,4.55,0,0,1,482,75Z" style="fill:#fff"/><polygon points="282.87 43.46 273.92 99.91 301.35 99.91 310.28 43.46 282.87 43.46" style="fill:#257aaa"/><polygon points="287.99 13.66 315.41 13.66 311.13 37.51 283.7 37.51 287.99 13.66" style="fill:#257aaa"/><polygon points="322.23 13.7 383.46 13.7 379.34 39.75 363.4 39 353.78 99.5 324.65 99.5 334.27 39 318.1 39.75 322.23 13.7" style="fill:#257aaa"/><path d="M390.8,13.7h27.43l-3.78,23.81L410.7,53.13h.43c6.06-6.05,12.05-10.94,19.91-10.94,14,0,17.35,10.63,15.37,23.06l-5.48,34.66H414.14l4.61-29.13c.47-3,.64-6.7-3.3-6.7-4.25,0-5.71,3.2-6.26,6.7l-4.62,29.13H377.15Z" style="fill:#257aaa"/><path d="M475.55,72c-.71,4.46,2.17,7.76,6.42,7.76A9.23,9.23,0,0,0,490.86,72c.72-4.56-1.77-8.29-6.35-8.29s-8.24,3.73-9,8.29m41.81.43c-3,18.71-21.15,28.81-38.79,28.81s-32.63-10.1-29.67-28.81c3.13-19.77,20.41-30.19,39-30.19s32.59,10.42,29.45,30.19" style="fill:#257aaa"/><path d="M549.8,53.45h.86a20.67,20.67,0,0,1,18.15-11.26c8.08,0,13,4.36,14.26,12h.63c4.45-7.87,10.31-12,19-12,13.5,0,17.81,10.42,15.87,22.64L613,99.92H586.46l4.43-28c.52-3.29,1.2-7.55-2.85-7.55s-4.61,4.26-5.12,7.55l-4.44,28H551.91l4.43-28c.52-3.29,1.19-7.55-2.84-7.55s-4.61,4.26-5.14,7.55l-4.42,28H517.36l8.94-56.45h25.94Z" style="fill:#257aaa"/><path d="M661.68,64.62c.6-3.83-1.61-7.34-5.53-7.34-4.16,0-6.72,3.4-7.33,7.34ZM647,76.31c-.72,4.57-.78,9.68,4.95,9.68a6.86,6.86,0,0,0,6.28-4.68h26.68c-5.78,13.61-22,19.88-34.94,19.88-17.75,0-32.57-9.14-29.49-28.6,3-18.71,19.28-30.4,37.24-30.4,20.09,0,33.88,13,29.15,34.12Z" style="fill:#257aaa"/><path d="M757.18,52.34c.24,0,.3-.06.3-.06V49.7H745.86v2.64Z" style="fill:#fff"/><path d="M704.25,107.22h29.54a5.51,5.51,0,0,0,2.08.41h31.91a5.51,5.51,0,0,0,4.15-1.89,11.81,11.81,0,0,0,7.67,2.69h15.45a5.5,5.5,0,0,0,5.4-4.44,5.51,5.51,0,0,0,4.8,2.83h20.51c4.18,0,11.7-1.8,15.07-13.85L851.29,59.2,862,95.29c1.84,7.33,6.94,11.53,14,11.53h20.1a5.49,5.49,0,0,0,4.76-2.75,5.5,5.5,0,0,0,5.44,4.77h19.4a25,25,0,0,0,11.24-2.6c3.12-1.56,6.12-4.62,9.13-9.32h9.82l2.92,4.35c2.34,3.45,7.11,7.57,16.58,7.57h21.71a5.5,5.5,0,0,0,5.5-5.5V95.76a5.5,5.5,0,0,0-5.5-5.5h-2.72a12.16,12.16,0,0,0,.75-4.29V68.14h2a5.5,5.5,0,0,0,5.5-5.5V54.76a6,6,0,0,0-.08-1,6,6,0,0,0,.08-1v-8a5.5,5.5,0,0,0-5.5-5.5h-.46V37.2A5.48,5.48,0,0,0,999,32.64V28.7a5.48,5.48,0,0,0,2.72-4.75v-11a5.5,5.5,0,0,0-5.5-5.5H964.33a5.48,5.48,0,0,0-4.75-2.72H943a5.48,5.48,0,0,0-4.75,2.72H907.06a5.5,5.5,0,0,0-5.5,5.5V24A5.47,5.47,0,0,0,904,28.51v4.13a5.45,5.45,0,0,0,1.92,4.17v2.56a5.51,5.51,0,0,0-5.16,5.49v8a5.5,5.5,0,0,0,.13,1.16,5.57,5.57,0,0,0-.13,1.16V63a5.5,5.5,0,0,0,5.5,5.5h1.27V90.26h-1.27a5.51,5.51,0,0,0-4.7,2.66V88.29a5.5,5.5,0,0,0-5.5-5.5h-10.7L870.51,33.48a5.49,5.49,0,0,0-5.26-3.92h-4.76l5.26-17a5.48,5.48,0,0,0-5.25-7.12H843.94a5.5,5.5,0,0,0-5.25,3.84L815.62,82.39H805.25a5.5,5.5,0,0,0-5.5,5.5v1.9a5.48,5.48,0,0,0-4.7-2.66h-.34a12.78,12.78,0,0,0,2.59-7V80l2.42-34.34a5.5,5.5,0,0,0-1.35-4A5.48,5.48,0,0,0,801,37V27.19a5.49,5.49,0,0,0-1.62-3.9v-5.6a5.49,5.49,0,0,0-5.26-5.49l-.09-.3a5.49,5.49,0,0,0-5.3-4.05h-6.05a5.49,5.49,0,0,0-4.56-2.42h-10.7a5.5,5.5,0,0,0-4.82,2.84A5.51,5.51,0,0,0,758,5.83H746.47a5.5,5.5,0,0,0-5,3.23h-3.27A5.49,5.49,0,0,0,734,11l-.81-1.17a5.5,5.5,0,0,0-4.51-2.36H711.43A5.53,5.53,0,0,0,707.3,9.3l-3.65,4.14a5.5,5.5,0,0,0-4.9,5.46v9.8a5.38,5.38,0,0,0,.77,2.79,5.33,5.33,0,0,0-.36,2v10.3a5.49,5.49,0,0,0,2.12,4.34,5.5,5.5,0,0,0-2.12,4.34V62.64a5.26,5.26,0,0,0,.07.89,5.39,5.39,0,0,0-.48,2.24v8.68a28.35,28.35,0,0,0,2.43,12A5.52,5.52,0,0,0,698.75,91v10.7A5.5,5.5,0,0,0,704.25,107.22Zm292.8-12a.5.5,0,0,1,.5.5v7.58a.5.5,0,0,1-.5.5H975.34c-5.84,0-10-1.81-12.44-5.37l-3.73-5.56a.47.47,0,0,1,0-.51.5.5,0,0,1,.44-.27h16.16a.49.49,0,0,1,.39.19l1.52,1.92c.66.65,2,1,4,1ZM906.56,12.94a.51.51,0,0,1,.5-.5h35.46V10.22a.5.5,0,0,1,.5-.5h16.56a.5.5,0,0,1,.5.5v2.22h36.16a.5.5,0,0,1,.5.5V24a.5.5,0,0,1-.5.5H983.62a.5.5,0,0,1-.5-.5V22.13H920.19V24a.5.5,0,0,1-.5.5H907.06a.5.5,0,0,1-.5-.5Zm-.31,50.6a.5.5,0,0,1-.5-.5V55.16a.51.51,0,0,1,.5-.5h7.58a3.64,3.64,0,0,0,2.22-.9l.58-.42H906.25a.5.5,0,0,1-.5-.5v-8a.5.5,0,0,1,.5-.5h18.09V43H911.41a.5.5,0,0,1-.5-.5V35.06a.5.5,0,0,1,.5-.5h12.93V33.14H909.49a.5.5,0,0,1-.5-.5V25.17a.5.5,0,0,1,.5-.5h14.85V22.84a.5.5,0,0,1,.5-.5h13.43a.5.5,0,0,1,.5.5v1.83h23.85V22.84a.5.5,0,0,1,.5-.5h13.43a.5.5,0,0,1,.5.5v1.83h16.47a.5.5,0,0,1,.5.5v7.47a.5.5,0,0,1-.5.5H977.05v1.42h14a.5.5,0,0,1,.5.5v7.48a.5.5,0,0,1-.5.5h-14v1.32h20a.5.5,0,0,1,.5.5v8a.5.5,0,0,1-.5.5H985.48l.15.1a3.46,3.46,0,0,0,2.33.82h9.09a.5.5,0,0,1,.5.5v7.88a.5.5,0,0,1-.5.5h-7V86c0,2.71-1.19,6-6.86,6H913a.5.5,0,0,1-.5-.5V63.54Zm-.5,32.22a.51.51,0,0,1,.5-.5h15.46c1.43,0,2.78-1,3.91-2.88a.48.48,0,0,1,.43-.25h16.16a.51.51,0,0,1,.44.26.52.52,0,0,1,0,.5c-2.78,4.63-5.46,7.62-8,8.88a20,20,0,0,1-9,2.07h-19.4a.51.51,0,0,1-.5-.5Zm-101-7.87a.5.5,0,0,1,.5-.5h12.23c1.38,0,2.26-1.64,2.76-3l23.22-73.61a.51.51,0,0,1,.48-.34H860.5a.48.48,0,0,1,.4.2.5.5,0,0,1,.08.44L853.7,34.56h11.55a.51.51,0,0,1,.48.36l14.94,49.69c.48,2.86,1.8,3.18,2.76,3.18h12.62a.5.5,0,0,1,.5.5v13a.5.5,0,0,1-.5.5H876c-4.81,0-7.89-2.64-9.17-7.86l-15.38-52L836,91.57c-1.88,6.79-5.34,10.25-10.27,10.25H805.25a.51.51,0,0,1-.5-.5Zm-70-8.69a10.17,10.17,0,0,1-2.23,6.37,7.39,7.39,0,0,1-6.13,3.22h0a.48.48,0,0,1-.34-.14.48.48,0,0,1-.16-.36V76.07a.51.51,0,0,1,.28-.45,1.44,1.44,0,0,0,.94-1.17V65.77a.5.5,0,0,1,.5-.5h6.66a.5.5,0,0,1,.5.5Zm33.53,22.93a.5.5,0,0,1-.5.5H735.87a.5.5,0,0,1-.5-.5v-9.5a.5.5,0,0,1,.5-.5H746V88.39h-8.18a.5.5,0,0,1-.5-.5V78.8a.5.5,0,0,1,.5-.5H746v-4h-9.29a.5.5,0,0,1-.5-.5V64.66a.5.5,0,0,1,.5-.5H767a.5.5,0,0,1,.5.5v9.09a.5.5,0,0,1-.5.5h-9.29v4h8.18a.5.5,0,0,1,.5.5v9.09a.5.5,0,0,1-.5.5h-8.18v3.74h10.1a.5.5,0,0,1,.5.5ZM735.77,27.19a.5.5,0,0,1,.5-.5H746V23.75h-7.78a.5.5,0,0,1-.5-.5V14.56a.5.5,0,0,1,.5-.5H746V11.33a.5.5,0,0,1,.5-.5H758a.5.5,0,0,1,.5.5v2.73h7.78a.5.5,0,0,1,.5.5v8.69a.51.51,0,0,1-.5.5h-7.78v2.94h9.37l-1-15.73a.52.52,0,0,1,.13-.38.51.51,0,0,1,.37-.15h10.7a.49.49,0,0,1,.5.46l.16,2.26,0-.07a.52.52,0,0,1,.42-.23h9.5a.5.5,0,0,1,.48.37l.91,3.33c.17.61.35.64.63.64h3.13a.5.5,0,0,1,.5.5V24a.5.5,0,0,1-.5.5h-7.47c-1.68,0-3-1-4-2.9l-3.61-7.93.89,13.07h15.8a.5.5,0,0,1,.5.5V37a.5.5,0,0,1-.5.5H780.33l1.94,29.88,1.58-22.13a.5.5,0,0,1,.5-.47h9.89a.51.51,0,0,1,.37.16.52.52,0,0,1,.13.38l-2.42,34.34c-.23,2.53-1.06,4.27-2.53,5.32a9.44,9.44,0,0,1-5.85,1.91h-.38l.17,3c.26,2.25,1.44,2.25,1.83,2.25h9.49a.5.5,0,0,1,.5.5v10.3a.5.5,0,0,1-.5.5H779.6c-4.38,0-6.93-3.07-7.57-9.13l-.47-7.43h-3.37a.5.5,0,0,1-.5-.5V76.07a.5.5,0,0,1,.5-.5h2.7l-2.37-38.09H736.27a.5.5,0,0,1-.5-.5Zm0,13.33a.5.5,0,0,1,.5-.5H767a.5.5,0,0,1,.5.5V55.16c0,5.59-2.63,6.76-4.84,6.76H736.27a.5.5,0,0,1-.5-.5Zm-32-21.62a.51.51,0,0,1,.5-.5h1.22c.54,0,1.11-.46,1.7-1.38l3.88-4.41a.54.54,0,0,1,.38-.17H728.7a.5.5,0,0,1,.41.22l3,4.34c.68,1.25,1.05,1.4,1.3,1.4h1.62a.5.5,0,0,1,.5.5v9.8a.5.5,0,0,1-.5.5h-6a4.27,4.27,0,0,1-3.52-1.7l-4.19-5h-2.68l-4.91,5a5.48,5.48,0,0,1-4,1.66h-5.56a.5.5,0,0,1-.5-.5Zm0,46.87a.5.5,0,0,1,.5-.5h7.18a.5.5,0,0,1,.5.5v7.57c0,1.38.42,1.72.78,1.86a.49.49,0,0,1,.33.46V88.29a.51.51,0,0,1-.5.5h-.09a9.19,9.19,0,0,1-6.71-4.38,23.17,23.17,0,0,1-2-10Zm0,25.25a.5.5,0,0,1,.5-.5h9.4V63.14h-9a.5.5,0,0,1-.5-.5V52.43a.5.5,0,0,1,.5-.5h9V44.25h-9a.5.5,0,0,1-.5-.5V33.45a.5.5,0,0,1,.5-.5h29.59a.5.5,0,0,1,.5.5v10.3a.5.5,0,0,1-.5.5h-9v7.68h9a.5.5,0,0,1,.5.5V62.64a.5.5,0,0,1-.5.5h-9V90.52h8.59a.5.5,0,0,1,.5.5v10.7a.5.5,0,0,1-.5.5h-29.6a.5.5,0,0,1-.5-.5Z" style="fill:#fff"/><polygon points="935.81 53.34 931.89 56.28 970.17 56.28 966.48 53.34 935.81 53.34" style="fill:#fff"/><rect x="926.55" y="64.35" width="49.5" height="1.32" style="fill:#fff"/><path d="M975.34,83.85c.39,0,.57-.64.66-1.32H926.55v1.32Z" style="fill:#fff"/><rect x="926.55" y="73.44" width="49.5" height="1.32" style="fill:#fff"/><rect x="938.77" y="33.14" width="23.85" height="1.42" style="fill:#fff"/><rect x="938.77" y="43.04" width="23.85" height="1.32" style="fill:#fff"/><path d="M734.25,65.27h-6.66a.5.5,0,0,0-.5.5v8.68a1.44,1.44,0,0,1-.94,1.17.51.51,0,0,0-.28.45V88.29a.48.48,0,0,0,.16.36.48.48,0,0,0,.34.14h0a7.39,7.39,0,0,0,6.13-3.22,10.17,10.17,0,0,0,2.23-6.37V65.77A.5.5,0,0,0,734.25,65.27Z" style="fill:#231916"/><path d="M736.27,61.92h26.36c2.21,0,4.84-1.17,4.84-6.76V40.52a.5.5,0,0,0-.5-.5h-30.7a.5.5,0,0,0-.5.5v20.9A.5.5,0,0,0,736.27,61.92ZM757.49,49.7v2.58s-.06.06-.3.06H745.86V49.7Z" style="fill:#231916"/><path d="M704.25,29.2h5.56a5.48,5.48,0,0,0,4-1.66l4.91-5h2.68l4.19,5a4.27,4.27,0,0,0,3.52,1.7h6a.5.5,0,0,0,.5-.5V18.9a.5.5,0,0,0-.5-.5h-1.62c-.25,0-.62-.15-1.3-1.4l-3-4.34a.5.5,0,0,0-.41-.22H711.43a.54.54,0,0,0-.38.17L707.17,17c-.59.92-1.16,1.38-1.7,1.38h-1.22a.51.51,0,0,0-.5.5v9.8A.5.5,0,0,0,704.25,29.2Z" style="fill:#231916"/><path d="M767.78,92.13h-10.1V88.39h8.18a.5.5,0,0,0,.5-.5V78.8a.5.5,0,0,0-.5-.5h-8.18v-4H767a.5.5,0,0,0,.5-.5V64.66a.5.5,0,0,0-.5-.5H736.68a.5.5,0,0,0-.5.5v9.09a.5.5,0,0,0,.5.5H746v4h-8.18a.5.5,0,0,0-.5.5v9.09a.5.5,0,0,0,.5.5H746v3.74h-10.1a.5.5,0,0,0-.5.5v9.5a.5.5,0,0,0,.5.5h31.91a.5.5,0,0,0,.5-.5v-9.5A.5.5,0,0,0,767.78,92.13Z" style="fill:#231916"/><path d="M736.27,37.48h32.25l2.37,38.09h-2.7a.5.5,0,0,0-.5.5v10.3a.5.5,0,0,0,.5.5h3.37L772,94.3c.64,6.06,3.19,9.13,7.57,9.13h15.45a.5.5,0,0,0,.5-.5V92.63a.5.5,0,0,0-.5-.5h-9.49c-.39,0-1.57,0-1.83-2.25l-.17-3h.38A9.44,9.44,0,0,0,789.79,85c1.47-1,2.3-2.79,2.53-5.32l2.42-34.34a.52.52,0,0,0-.13-.38.51.51,0,0,0-.37-.16h-9.89a.5.5,0,0,0-.5.47l-1.58,22.13-1.94-29.88h15.13a.5.5,0,0,0,.5-.5V27.19a.5.5,0,0,0-.5-.5h-15.8l-.89-13.07,3.61,7.93c1,1.93,2.31,2.9,4,2.9h7.47a.5.5,0,0,0,.5-.5V17.69a.5.5,0,0,0-.5-.5h-3.13c-.28,0-.46,0-.63-.64l-.91-3.33a.5.5,0,0,0-.48-.37h-9.5a.52.52,0,0,0-.42.23l0,.07-.16-2.26a.49.49,0,0,0-.5-.46h-10.7a.51.51,0,0,0-.37.15.52.52,0,0,0-.13.38l1,15.73h-9.37V23.75h7.78a.51.51,0,0,0,.5-.5V14.56a.5.5,0,0,0-.5-.5h-7.78V11.33a.5.5,0,0,0-.5-.5H746.47a.5.5,0,0,0-.5.5v2.73h-7.78a.5.5,0,0,0-.5.5v8.69a.5.5,0,0,0,.5.5H746v2.94h-9.7a.5.5,0,0,0-.5.5V37A.5.5,0,0,0,736.27,37.48Z" style="fill:#231916"/><path d="M712.45,88.78h.09a.51.51,0,0,0,.5-.5V75.66a.49.49,0,0,0-.33-.46c-.36-.14-.78-.48-.78-1.86V65.77a.5.5,0,0,0-.5-.5h-7.18a.5.5,0,0,0-.5.5v8.68a23.17,23.17,0,0,0,2,10A9.19,9.19,0,0,0,712.45,88.78Z" style="fill:#231916"/><path d="M704.25,102.22h29.6a.5.5,0,0,0,.5-.5V91a.5.5,0,0,0-.5-.5h-8.59V63.14h9a.5.5,0,0,0,.5-.5V52.43a.5.5,0,0,0-.5-.5h-9V44.25h9a.5.5,0,0,0,.5-.5V33.45a.5.5,0,0,0-.5-.5H704.66a.5.5,0,0,0-.5.5v10.3a.5.5,0,0,0,.5.5h9v7.68h-9a.5.5,0,0,0-.5.5V62.64a.5.5,0,0,0,.5.5h9V90.52h-9.4a.5.5,0,0,0-.5.5v10.7A.5.5,0,0,0,704.25,102.22Z" style="fill:#231916"/><path d="M805.25,101.82h20.51c4.93,0,8.39-3.46,10.27-10.25L851.4,41.94l15.38,52c1.28,5.22,4.36,7.86,9.17,7.86h20.1a.5.5,0,0,0,.5-.5v-13a.5.5,0,0,0-.5-.5H883.43c-1,0-2.28-.32-2.76-3.18L865.73,34.92a.51.51,0,0,0-.48-.36H853.7L861,11.07a.5.5,0,0,0-.08-.44.48.48,0,0,0-.4-.2H843.94a.51.51,0,0,0-.48.34L820.24,84.38c-.5,1.37-1.38,3-2.76,3H805.25a.5.5,0,0,0-.5.5v13.43A.51.51,0,0,0,805.25,101.82Z" style="fill:#231916"/><path d="M907.06,24.45h12.63a.5.5,0,0,0,.5-.5V22.13h62.93V24a.5.5,0,0,0,.5.5h12.62a.5.5,0,0,0,.5-.5v-11a.5.5,0,0,0-.5-.5H960.08V10.22a.5.5,0,0,0-.5-.5H943a.5.5,0,0,0-.5.5v2.22H907.06a.51.51,0,0,0-.5.5V24A.5.5,0,0,0,907.06,24.45Z" style="fill:#231916"/><path d="M912.52,91.42a.5.5,0,0,0,.5.5h70.2c5.67,0,6.86-3.24,6.86-6V63.14h7a.5.5,0,0,0,.5-.5V54.76a.5.5,0,0,0-.5-.5H988a3.46,3.46,0,0,1-2.33-.82l-.15-.1h11.57a.5.5,0,0,0,.5-.5v-8a.5.5,0,0,0-.5-.5h-20V43h14a.5.5,0,0,0,.5-.5V35.06a.5.5,0,0,0-.5-.5h-14V33.14h16.47a.5.5,0,0,0,.5-.5V25.17a.5.5,0,0,0-.5-.5H977.05V22.84a.5.5,0,0,0-.5-.5H963.12a.5.5,0,0,0-.5.5v1.83H938.77V22.84a.5.5,0,0,0-.5-.5H924.84a.5.5,0,0,0-.5.5v1.83H909.49a.5.5,0,0,0-.5.5v7.47a.5.5,0,0,0,.5.5h14.85v1.42H911.41a.5.5,0,0,0-.5.5v7.48a.5.5,0,0,0,.5.5h12.93v1.32H906.25a.5.5,0,0,0-.5.5v8a.5.5,0,0,0,.5.5h10.38l-.58.42a3.64,3.64,0,0,1-2.22.9h-7.58a.51.51,0,0,0-.5.5V63a.5.5,0,0,0,.5.5h6.27Zm26.25-56.86V33.14h23.85v1.42ZM962.62,43v1.32H938.77V43ZM931.89,56.28l3.92-2.94h30.67l3.69,2.94Zm44.16,17.16v1.32h-49.5V73.44Zm0-9.09v1.32h-49.5V64.35Zm0,18.18c-.09.68-.27,1.32-.66,1.32H926.55V82.53Z" style="fill:#231916"/><path d="M977.65,94.24l-1.52-1.92a.49.49,0,0,0-.39-.19H959.58a.5.5,0,0,0-.44.27.47.47,0,0,0,0,.51l3.73,5.56c2.42,3.56,6.6,5.37,12.44,5.37h21.71a.5.5,0,0,0,.5-.5V95.76a.5.5,0,0,0-.5-.5H981.6C979.69,95.26,978.31,94.89,977.65,94.24Z" style="fill:#231916"/><path d="M906.25,103.84h19.4a20,20,0,0,0,9-2.07c2.52-1.26,5.2-4.25,8-8.88a.52.52,0,0,0,0-.5.51.51,0,0,0-.44-.26H926.05a.48.48,0,0,0-.43.25c-1.13,1.88-2.48,2.88-3.91,2.88H906.25a.51.51,0,0,0-.5.5v7.58A.51.51,0,0,0,906.25,103.84Z" style="fill:#231916"/><path d="M222.8,10.75H210.21a9.5,9.5,0,0,0-5.92,2.07l-17.71,14.1a26.86,26.86,0,0,0-1.89-3.44,28.59,28.59,0,0,0-12-10.37,37.07,37.07,0,0,0-16.08-3.4A48.8,48.8,0,0,0,145.07,11a41.88,41.88,0,0,0-9.91,3.75,62.6,62.6,0,0,0-10.54,7.58c-.14.12-.27.25-.4.38-6-8.57-15.15-13.1-26.39-13.1C83,9.61,75,16.81,70.9,22.85c-.47.69-.91,1.42-1.34,2.16-.29-.52-.59-1-.91-1.53a28.61,28.61,0,0,0-12-10.37A37,37,0,0,0,40.6,9.71,48.68,48.68,0,0,0,29,11a41.88,41.88,0,0,0-9.91,3.75A63,63,0,0,0,8.57,22.33,9.5,9.5,0,0,0,7.48,35.69l8.32,9.86a9.49,9.49,0,0,0,13.32,1.19,33.21,33.21,0,0,1,6.37-4.27,9,9,0,0,1,3.27-.94,5.91,5.91,0,0,1-.34,1.21,15.94,15.94,0,0,1-2.26,3.62c-1,1.27-3.48,4.15-9.8,10.61L8.18,75.36A9.5,9.5,0,0,0,5.43,82V92.69a9.5,9.5,0,0,0,9.5,9.5H65.57a9.51,9.51,0,0,0,9.36-7.9c5.83,5.84,13.63,8.89,22.9,8.89,11.63,0,19.07-4.43,23.73-9.26a9.5,9.5,0,0,0,9.42,8.27h50.63a9.5,9.5,0,0,0,9.5-9.5V90.26c.16-1.89.88-4.79,3.81-4.79,2.38,0,3,1.92,3.06,3.63v1.84a5.38,5.38,0,0,0,0,.71v1a9.5,9.5,0,0,0,9.5,9.5H222.8a9.5,9.5,0,0,0,9.5-9.5V20.25A9.5,9.5,0,0,0,222.8,10.75Z" style="fill:#bc2021"/><path d="M65.57,92.69H14.93V82L33.12,63.66q8.07-8.28,10.55-11.48a25.13,25.13,0,0,0,3.57-5.92,15.17,15.17,0,0,0,1.09-5.64c0-2.91-.8-5.07-2.41-6.5A9.31,9.31,0,0,0,39.51,32a18.47,18.47,0,0,0-8.18,1.94,41.69,41.69,0,0,0-8.27,5.5l-8.33-9.86a55,55,0,0,1,8.87-6.45,32.61,32.61,0,0,1,7.68-2.89,39.24,39.24,0,0,1,9.32-1,27.62,27.62,0,0,1,12,2.48,19.15,19.15,0,0,1,8.08,6.93,18.5,18.5,0,0,1,2.87,10.21,25,25,0,0,1-1.76,9.39,36,36,0,0,1-5.45,9,133.17,133.17,0,0,1-13,13.14L34,79.12v.69H65.57Z" style="fill:#fff"/><path d="M123.2,56.47q0,19-6.22,28.1T97.83,93.68q-12.54,0-18.9-9.41t-6.37-27.8q0-19.17,6.19-28.27t19.08-9.09q12.53,0,19,9.51T123.2,56.47Zm-35.43,0q0,13.34,2.3,19.1t7.76,5.78q5.34,0,7.73-5.85t2.38-19q0-13.32-2.41-19.15t-7.7-5.82q-5.4,0-7.73,5.82T87.77,56.47Z" style="fill:#fff"/><path d="M181.61,92.69H131V82l18.18-18.38q8.07-8.28,10.55-11.48a24.47,24.47,0,0,0,3.57-5.92,15,15,0,0,0,1.09-5.64c0-2.91-.8-5.07-2.4-6.5A9.32,9.32,0,0,0,155.55,32a18.4,18.4,0,0,0-8.17,1.94,41.74,41.74,0,0,0-8.28,5.5l-8.32-9.86a54.59,54.59,0,0,1,8.87-6.45,32.28,32.28,0,0,1,7.68-2.89,39.15,39.15,0,0,1,9.31-1,27.59,27.59,0,0,1,12,2.48,19.15,19.15,0,0,1,8.08,6.93,18.42,18.42,0,0,1,2.87,10.21,24.82,24.82,0,0,1-1.76,9.39,36,36,0,0,1-5.45,9,132.79,132.79,0,0,1-13,13.14l-9.32,8.77v.69h31.56Z" style="fill:#fff"/><path d="M222.8,92.69H207.48V50.77l.15-6.88.25-7.54q-3.81,3.82-5.3,5l-8.33,6.69-7.38-9.22,23.34-18.58H222.8Z" style="fill:#fff"/></svg>