<?xml version="1.0" encoding="utf-8"?>
<!-- Generator: Adobe Illustrator 24.1.0, SVG Export Plug-In . SVG Version: 6.00 Build 0)  -->
<svg version="1.1" id="圖層_1" xmlns="http://www.w3.org/2000/svg" xmlns:xlink="http://www.w3.org/1999/xlink" x="0px" y="0px"
	 viewBox="0 0 750 116" style="enable-background:new 0 0 750 116;" xml:space="preserve">
<style type="text/css">
	.st0{fill:#FFFFFF;}
</style>
<polygon class="st0" points="28.5,47 19.5,103.4 47,103.4 55.9,47 "/>
<polygon class="st0" points="33.6,17.1 61,17.1 56.7,41 29.3,41 "/>
<polygon class="st0" points="67.8,17.2 129.1,17.2 124.9,43.2 109,42.5 99.4,103 70.2,103 79.9,42.5 63.7,43.2 "/>
<path class="st0" d="M136.4,17.2h27.4L160,41l-3.8,15.6h0.4c6.1-6,12-10.9,19.9-10.9c14,0,17.4,10.6,15.4,23.1l-5.5,34.7h-26.8
	l4.6-29.1c0.5-3,0.6-6.7-3.3-6.7c-4.2,0-5.7,3.2-6.3,6.7l-4.6,29.1h-27.4L136.4,17.2z"/>
<path class="st0" d="M221.1,75.4c-0.7,4.5,2.2,7.8,6.4,7.8c4.4-0.1,8.2-3.4,8.9-7.8c0.7-4.6-1.8-8.3-6.4-8.3S221.9,70.9,221.1,75.4
	 M262.9,75.9c-3,18.7-21.1,28.8-38.8,28.8s-32.6-10.1-29.7-28.8c3.1-19.8,20.4-30.2,39-30.2S266.1,56.1,262.9,75.9"/>
<path class="st0" d="M295.4,56.9h0.8c3.5-6.8,10.5-11.2,18.2-11.3c8.1,0,13,4.4,14.3,12h0.6c4.5-7.9,10.3-12,19-12
	c13.5,0,17.8,10.4,15.9,22.7l-5.5,35.1h-26.6l4.4-28c0.5-3.3,1.2-7.6-2.8-7.6s-4.6,4.3-5.1,7.6l-4.4,28h-26.6l4.4-28
	c0.5-3.3,1.2-7.6-2.8-7.6s-4.6,4.3-5.1,7.6l-4.4,28H263l8.9-56.4h25.9L295.4,56.9z"/>
<path class="st0" d="M407.3,68.1c0.6-3.8-1.6-7.3-5.5-7.3c-4.2,0-6.7,3.4-7.3,7.3H407.3z M392.6,79.8c-0.7,4.6-0.8,9.7,5,9.7
	c2.9-0.1,5.4-2,6.3-4.7h26.7c-5.8,13.6-22,19.9-34.9,19.9c-17.8,0-32.6-9.1-29.5-28.6c3-18.7,19.3-30.4,37.2-30.4
	c20.1,0,33.9,13,29.1,34.1H392.6z"/>
<path class="st0" d="M502.8,55.8c0.2,0,0.3-0.1,0.3-0.1v-2.6h-11.6v2.6L502.8,55.8z"/>
<path class="st0" d="M458,92.3L458,92.3c0.2,0,0.3,0,0.4-0.1c0.1-0.1,0.2-0.2,0.2-0.4V79.2c0-0.2-0.1-0.4-0.3-0.5
	c-0.4-0.1-0.8-0.5-0.8-1.8v-7.6c0-0.3-0.2-0.5-0.5-0.5h-7.2c-0.3,0-0.5,0.2-0.5,0.5V78c-0.1,3.4,0.6,6.9,2,10
	C452.8,90.3,455.3,91.9,458,92.3z"/>
<path class="st0" d="M449.9,32.7h5.5c1.5,0,3-0.6,4-1.7l4.9-5h2.7l4.2,5c0.8,1.1,2.1,1.7,3.5,1.7h6c0.3,0,0.5-0.2,0.5-0.5v-9.8
	c0-0.3-0.2-0.5-0.5-0.5H479c-0.2,0-0.6-0.1-1.3-1.4l-3-4.3c-0.1-0.1-0.2-0.2-0.4-0.2H457c-0.1,0-0.3,0.1-0.4,0.2l-3.9,4.4
	c-0.6,0.9-1.2,1.4-1.7,1.4h-1.2c-0.3,0-0.5,0.2-0.5,0.5v9.8C449.3,32.5,449.6,32.7,449.9,32.7L449.9,32.7z"/>
<path class="st0" d="M449.9,105.7h29.6c0.3,0,0.5-0.2,0.5-0.5V94.5c0-0.3-0.2-0.5-0.5-0.5h-8.6V66.6h9c0.3,0,0.5-0.2,0.5-0.5V55.9
	c0-0.3-0.2-0.5-0.5-0.5h-9v-7.7h9c0.3,0,0.5-0.2,0.5-0.5V36.9c0-0.3-0.2-0.5-0.5-0.5h-29.6c-0.3,0-0.5,0.2-0.5,0.5v10.3
	c0,0.3,0.2,0.5,0.5,0.5h9v7.7h-9c-0.3,0-0.5,0.2-0.5,0.5v10.2c0,0.3,0.2,0.5,0.5,0.5h9V94h-9.4c-0.3,0-0.5,0.2-0.5,0.5v10.7
	C449.4,105.5,449.6,105.7,449.9,105.7z"/>
<path class="st0" d="M481.9,41h32.3l2.4,38.1h-2.7c-0.3,0-0.5,0.2-0.5,0.5v10.3c0,0.3,0.2,0.5,0.5,0.5h3.4l0.5,7.4
	c0.6,6.1,3.2,9.1,7.6,9.1h15.5c0.3,0,0.5-0.2,0.5-0.5V96.1c0-0.3-0.2-0.5-0.5-0.5h-9.5c-0.4,0-1.6,0-1.8-2.3l-0.2-3h0.4
	c2.1,0,4.2-0.6,5.8-1.9c1.5-1.1,2.3-2.8,2.5-5.3l2.4-34.3c0-0.1,0-0.3-0.1-0.4c-0.1-0.1-0.2-0.2-0.4-0.2h-10c-0.3,0-0.5,0.2-0.5,0.5
	l-1.6,22.1l-2-29.8H541c0.3,0,0.5-0.2,0.5-0.5v-9.8c0-0.3-0.2-0.5-0.5-0.5h-15.8l-0.9-13.1L528,25c1,1.9,2.3,2.9,4,2.9h7.5
	c0.3,0,0.5-0.2,0.5-0.5v-6.2c0-0.3-0.2-0.5-0.5-0.5h-3.1c-0.3,0-0.5,0-0.6-0.6l-0.9-3.3c-0.1-0.2-0.3-0.4-0.5-0.4h-9.5
	c-0.2,0-0.3,0.1-0.4,0.2v0.1l-0.2-2.3c0-0.3-0.2-0.5-0.5-0.5H513c-0.1,0-0.3,0.1-0.4,0.2c-0.1,0.1-0.1,0.2-0.1,0.4l1,15.7h-9.4v-2.9
	h7.8c0.3,0,0.5-0.2,0.5-0.5V18c0-0.3-0.2-0.5-0.5-0.5h-7.8v-2.7c0-0.3-0.2-0.5-0.5-0.5H492c-0.3,0-0.5,0.2-0.5,0.5v2.7h-7.8
	c-0.3,0-0.5,0.2-0.5,0.5v8.7c0,0.3,0.2,0.5,0.5,0.5h7.8v2.9h-9.7c-0.3,0-0.5,0.2-0.5,0.5v9.8C481.4,40.7,481.6,41,481.9,41
	C481.8,41,481.9,41,481.9,41z"/>
<path class="st0" d="M479.8,68.8h-6.7c-0.3,0-0.5,0.2-0.5,0.5V78c-0.1,0.5-0.4,1-0.9,1.2c-0.2,0.1-0.3,0.3-0.3,0.4v12.2
	c0,0.1,0.1,0.3,0.2,0.4c0.1,0.1,0.2,0.1,0.3,0.1l0,0c2.5,0,4.8-1.2,6.1-3.2c1.4-1.8,2.2-4,2.2-6.4V69.2
	C480.3,69,480.1,68.8,479.8,68.8z"/>
<path class="st0" d="M481.9,65.4h26.4c2.2,0,4.8-1.2,4.8-6.8V44c0-0.3-0.2-0.5-0.5-0.5h-30.7c-0.3,0-0.5,0.2-0.5,0.5v20.9
	C481.4,65.2,481.6,65.4,481.9,65.4L481.9,65.4z M503.1,53.2v2.6c0,0-0.1,0.1-0.3,0.1h-11.3v-2.6L503.1,53.2z"/>
<path class="st0" d="M513.4,95.6h-10.1v-3.8h8.2c0.3,0,0.5-0.2,0.5-0.5v-9.1c0-0.3-0.2-0.5-0.5-0.5h-8.2v-4h9.3
	c0.3,0,0.5-0.2,0.5-0.5v-9.1c0-0.3-0.2-0.5-0.5-0.5h-30.3c-0.3,0-0.5,0.2-0.5,0.5v9.1c0,0.3,0.2,0.5,0.5,0.5h9.3v4h-8.2
	c-0.3,0-0.5,0.2-0.5,0.5v9.1c0,0.3,0.2,0.5,0.5,0.5h8.2v3.8h-10.1c-0.3,0-0.5,0.2-0.5,0.5v9.5c0,0.3,0.2,0.5,0.5,0.5h31.9
	c0.3,0,0.5-0.2,0.5-0.5v-9.4C513.9,95.8,513.7,95.6,513.4,95.6z"/>
<path class="st0" d="M550.9,105.3h20.5c4.9,0,8.4-3.5,10.3-10.2L597,45.4l15.4,52c1.3,5.2,4.4,7.9,9.2,7.9h20.1
	c0.3,0,0.5-0.2,0.5-0.5v-13c0-0.3-0.2-0.5-0.5-0.5H629c-1,0-2.3-0.3-2.8-3.2l-14.9-49.7c-0.1-0.2-0.3-0.4-0.5-0.4h-11.5l7.3-23.5
	c0.1-0.2,0-0.3-0.1-0.4c-0.1-0.1-0.2-0.2-0.4-0.2h-16.6c-0.2,0-0.4,0.1-0.5,0.4l-23.2,73.6c-0.5,1.4-1.4,3-2.8,3h-12.2
	c-0.3,0-0.5,0.2-0.5,0.5v13.4C550.4,105.1,550.6,105.3,550.9,105.3z"/>
<path class="st0" d="M732,90l-1.5-5.9c-0.1-0.2-0.3-0.4-0.5-0.4h-14.2c-0.2,0-0.3,0.1-0.4,0.2c-0.1,0.1-0.1,0.3-0.1,0.4l3.9,13
	c1.2,3.8,4.1,5.8,8.8,5.8h13c0.3,0,0.5-0.2,0.5-0.5V93c0-0.3-0.2-0.5-0.5-0.5h-6.3C733.2,92.5,732.4,91.7,732,90z"/>
<path class="st0" d="M743.2,80.8V70.5c0-0.3-0.2-0.5-0.5-0.5h-90.8c-0.3,0-0.5,0.2-0.5,0.5v10.3c0,0.3,0.2,0.5,0.5,0.5h40.2v12.1
	c0,1-0.4,1.4-1.5,1.4h-7.9c-0.3,0-0.5,0.2-0.5,0.5v10.3c0,0.3,0.2,0.5,0.5,0.5h15.8c7.6,0,9.2-3.5,9.2-6.5V81.3h35
	C742.9,81.3,743.1,81.1,743.2,80.8C743.1,80.8,743.2,80.8,743.2,80.8z"/>
<path class="st0" d="M652.3,53.6H685c4.7,0,7.9-2.6,9.5-7.7l4.8-17.1v-0.1v-11c0-0.3-0.2-0.5-0.5-0.5h-23.2l0.5-1.4
	c0.1-0.2,0-0.3-0.1-0.4c-0.1-0.1-0.2-0.2-0.4-0.2h-13.4c-0.2,0-0.4,0.1-0.5,0.3l-2.3,5.6c-0.2,0.5-0.6,0.9-1.2,0.9H653
	c-0.3,0-0.5,0.2-0.5,0.5v9.8c0,0.3,0.2,0.5,0.5,0.5h9.5c4.5,0,7.5-1.5,8.8-4.3h14.2l-2.6,11l-0.1,0.4l-2.5-6.5
	c-0.1-0.2-0.3-0.3-0.5-0.3h-11.1c-0.2,0-0.3,0.1-0.4,0.2c-0.1,0.1-0.1,0.3,0,0.5l3.4,8.8h-2.9l-2.2-7.1c-0.1-0.2-0.3-0.4-0.5-0.3
	h-11.5c-0.2,0-0.3,0.1-0.4,0.2c-0.1,0.1-0.1,0.3-0.1,0.5l2.1,6.8h-4.1c-0.3,0-0.5,0.2-0.5,0.5v10.2C651.8,53.4,652,53.6,652.3,53.6
	L652.3,53.6z"/>
<path class="st0" d="M706.7,49c1.1,3,3.1,4.6,5.9,4.6h29.6c0.3,0,0.5-0.2,0.5-0.5V42.9c0-0.3-0.2-0.5-0.5-0.5h-8l6.9-12.3
	c0-0.1,0.1-0.2,0.1-0.2V17.6c0-0.3-0.2-0.5-0.5-0.5h-39.4c-0.3,0-0.5,0.2-0.5,0.5v12.2v0.1L706.7,49z M714.5,28.3h12.3l-7.3,14
	c-0.8-0.1-1.5-0.7-1.7-1.5L714.5,28.3z"/>
<path class="st0" d="M655.4,56.1h83.7c0.3,0,0.5,0.2,0.5,0.5v9.9c0,0.3-0.2,0.5-0.5,0.5h-83.7c-0.3,0-0.5-0.2-0.5-0.5v-9.9
	C654.9,56.4,655.1,56.1,655.4,56.1z"/>
<path class="st0" d="M681,83.8h-14.1c-0.2,0-0.4,0.1-0.5,0.4l-2.1,7.1c-0.4,0.9-0.7,1.2-1,1.2h-8.7c-0.3,0-0.5,0.2-0.5,0.5v9.8
	c0,0.3,0.2,0.5,0.5,0.5H668c4.7,0,7.7-1.7,9-5.1l4.5-13.7c0-0.2,0-0.3-0.1-0.4C681.3,83.9,681.2,83.8,681,83.8z"/>
</svg>
